<svg width="512" height="512" xmlns="http://www.w3.org/2000/svg" preserveAspectRatio="xMidYMid meet" version="1.0">

<defs>
    <style type="text/css"><![CDATA[
      @keyframes rotation {
  0% {
    transform: rotate(0deg);
  }
  50% {
    transform: rotate(18deg);
  }
  100% {
    transform: rotate(0deg);
  }
}

@keyframes pop_kf {
  0% {
    transform: scale(1.4);
  }
  50% {
    transform: scale(1);
  }
  100% {
    transform: scale(1.4);
  }
}

 .hammer {
  animation: rotation 2s infinite linear;
  animation-timing-function: cubic-bezier(0.09,0.97,0.44,0.81);
  transform-origin: 400px 200px;
}

.pop {
  animation: pop_kf 2s infinite linear;
  animation-timing-function: cubic-bezier(0.1, 0.7, 1.0, 0.1);
  transform-origin: 80px 330px;
}
    ]]></style>
  </defs>

 <g class="hammer">
  <title>Hammer</title>
  <path id="svg_2" d="m148.1,74.59999c-7.3,3.7 -10.5,8.6 -10.9,17.3c-0.2,5.4 0.1,7.3 2,10.5c3.9,6.7 8.6,9.7 17.2,10.9l7.6,1.1l0,6.7l0,6.7l-4,0.7c-4.7,0.8 -11.3,5.4 -13.9,9.6c-2.2,3.6 -5.5,18.5 -7.7,34.9c-2.2,15.8 -2.2,46.8 0,63c2.1,15.7 5.1,30.1 7,33.7c2.9,5.7 11.2,11.3 16.6,11.3c1.8,0 2,0.6 2,7.5l0,7.5l-6,0c-13.1,0 -21.6,8.8 -20.8,21.5c0.5,8.4 4,13.8 11.1,17.1l5.2,2.4l40.5,0c25.7,0 41.9,-0.4 44.4,-1.1c2.2,-0.6 5.6,-2.9 8.1,-5.3c8,-8 8.3,-19.4 0.8,-27.7c-4.9,-5.4 -6.6,-6.2 -14.8,-6.8l-7,-0.6l-0.3,-7.3c-0.3,-7 -0.2,-7.2 2.1,-7.2c4,0 12.3,-4.8 15.1,-8.8c1.4,-2.1 3.3,-7.2 4.4,-11.7l1.8,-8l5.9,-0.2c9.6,-0.4 12.3,-1.2 16.1,-4.5c4.1,-3.6 6.4,-7.7 6.4,-11.3c0,-3 -0.3,-3 15.5,-1c35.3,4.2 84.8,5.1 118.5,2.1c21.3,-1.9 51.8,-6.1 57,-7.7c10.7,-3.5 18,-13.7 18,-25.2c0,-7.4 -1.9,-12.3 -6.7,-17.7c-5.7,-6.4 -11,-8.4 -28.3,-10.9c-38.1,-5.4 -75.5,-7.4 -111.9,-6c-19.6,0.8 -28.1,1.5 -56.3,4.6c-5.8,0.6 -5.8,0.6 -5.8,-2.1c0,-9 -9.1,-15.6 -21.5,-15.6c-6.1,0 -7.5,-0.3 -7.5,-1.6c0,-0.8 -0.7,-4.7 -1.6,-8.6c-1.2,-5.4 -2.5,-8 -5.3,-11.1c-3.8,-4.2 -10,-7.6 -13.8,-7.7c-2.2,0 -2.3,-0.4 -2.3,-6.8l0,-6.8l7.5,-1.1c5.3,-0.7 8.7,-1.9 11.4,-3.7c13.8,-9.6 10.4,-31 -5.8,-36.5c-2.3,-0.7 -16.3,-1.1 -44.1,-1.1l-40.6,0l-5.3,2.6zm86.9,12.7c3.2,1.6 4,7 1.4,9.8c-1.6,1.8 -3.6,1.9 -41.7,1.9c-35.9,0 -40.2,-0.2 -41.9,-1.7c-2.7,-2.4 -2.3,-6.8 0.8,-9.2c2.6,-2 3.7,-2.1 40.8,-2.1c28.6,0 38.7,0.3 40.6,1.3zm-24,33.7l0,7l-16.5,0l-16.5,0l0,-7l0,-7l16.5,0l16.5,0l0,7zm18.2,23c2,1.5 2.9,3.7 4.1,10.2c6.3,32 6.3,68.1 0.2,100.3c-2.6,13.2 -0.4,12.5 -38.9,12.5c-38.4,0 -35.7,0.8 -38.6,-12.1c-6.6,-29.7 -6.6,-71.1 0,-100.8c2.9,-12.9 0.2,-12.1 38.5,-12.1c30.5,0 32.4,0.1 34.7,2zm32.8,28.5c0.7,0.8 1.6,7.7 2.2,16.6c1.2,17.1 -0.1,44.9 -2.2,47.4c-0.8,1 -3,1.5 -6.1,1.5l-4.9,0l0.8,-7.8c0.4,-4.2 0.7,-15.8 0.7,-25.7c0,-9.9 -0.3,-21.5 -0.7,-25.8l-0.8,-7.7l4.9,0c3,0 5.3,0.5 6.1,1.5zm138.5,12.5c15.7,1.1 44.8,4.5 56.2,6.4c11.3,2 15.8,6.3 15,14.4c-0.5,4.6 -3.5,8.7 -7.4,10.3c-2.9,1.1 -34,5.4 -51.3,7.1c-20.3,2 -87.1,1.7 -106.5,-0.5c-8.2,-0.9 -17.8,-1.9 -21.2,-2.3l-6.3,-0.7l0,-14.9c0,-11 0.3,-15 1.3,-15.3c1.9,-0.6 28.9,-3.5 41.7,-4.4c16.8,-1.2 62.3,-1.2 78.5,-0.1zm-189.5,103l0,7l-16.5,0l-16.5,0l0,-7l0,-7l16.5,0l16.5,0l0,7zm25.2,23.7c2.6,2.3 2.4,7.8 -0.4,9.7c-1.9,1.4 -7.5,1.6 -40.6,1.6c-38,0 -41.3,-0.3 -43.4,-3.4c-1.4,-2 -0.8,-5.6 1.2,-7.6c1.9,-1.9 3.3,-2 41.7,-2c35.5,0 39.8,0.2 41.5,1.7z"/>
  <path id="svg_3" d="m303,198.3c-5.3,2.7 -4.9,10.6 0.6,12.7c1.7,0.7 21.5,1 54.6,0.8l52,-0.3l1.9,-2.4c2.4,-3 2.4,-6.2 0,-9.2l-1.9,-2.4l-52.4,-0.2c-40.7,-0.2 -52.8,0 -54.8,1z"/>
 </g>

 <g class="pop">
  <title>Pop</title>
  <path id="svg_4" d="m37.6,281.2c-2.1,3 -2,7.5 0.2,9.3c3.5,3.1 42.5,20.5 45.8,20.5c5.6,0 8.7,-7.6 4.6,-11.3c-3.2,-2.9 -42.9,-20.7 -46.1,-20.7c-2,0 -3.5,0.8 -4.5,2.2z"/>
  <path id="svg_5" d="m28,325c-1.1,1.1 -2,3.3 -2,5c0,1.7 0.9,3.9 2,5c1.9,1.9 3.3,2 37.5,2l35.6,0l2.4,-2.5c3,-3 3.1,-5.4 0.4,-8.9l-2,-2.6l-36,0c-34.6,0 -36,0.1 -37.9,2z"/>
  <path id="svg_6" d="m80.5,349c-10.8,4.4 -42.3,19.5 -43.2,20.8c-3.2,4.1 0,11.2 5.1,11.2c2.7,0 43.2,-18.3 45.8,-20.7c2.3,-2.1 2.3,-7.5 0.1,-9.5c-2.4,-2.1 -5.4,-2.8 -7.8,-1.8z"/>
 </g>

 <g class="table">
  <title>Table</title>
  <path id="svg_7" d="m111,350.2c-6.5,4.5 -7.5,6.8 -7.8,18.9l-0.4,10.9l-5.1,0c-7,0 -14.2,3.5 -19.4,9.4c-5.8,6.6 -7.3,11.7 -7.3,25.3l0,11.3l-20.8,0c-19,0 -21,0.2 -22.5,1.8c-1.7,1.9 -2.2,6.8 -0.9,8.8c0.4,0.6 1.7,1.6 2.9,2.3c3.1,1.6 411.50001,1.6 414.60001,0c3,-1.6 3.7,-2.8 3.7,-6.5c0,-6.6 2,-6.4 -55.7,-6.4l-52,0l-0.5,-12.4c-0.4,-10.9 -0.8,-13.1 -3.2,-18c-4.6,-9.5 -14.1,-15.6 -24.1,-15.6l-4.2,0l-0.6,-10.5c-0.4,-9.1 -0.8,-11.1 -3,-14.4c-5,-7.5 1.2,-7.1 -100,-7.1l-90.4,0l-3.3,2.2zm181.8,20.5l0.3,8.3l-88.1,0l-88,0l0,-7.8c0,-4.3 0.3,-8.2 0.7,-8.5c0.3,-0.4 39.8,-0.6 87.7,-0.5l87.1,0.3l0.3,8.2zm24.8,24.9c5.9,2.8 7.4,6.6 7.4,18.8l0,10.6l-120,0l-120,0l0,-9.8c0,-11.2 1.5,-15.3 6.9,-18.9l3.4,-2.3l109.4,0c98.5,0 109.8,0.2 112.9,1.6z"/>
 </g>
</svg>